<svg xmlns="http://www.w3.org/2000/svg" xmlns:xlink="http://www.w3.org/1999/xlink" viewBox="0 0 400 400"><defs><style>.cls-1{fill:#fff;stroke:#000;stroke-miterlimit:10;}</style></defs><title>map</title><g id="Layer_1" data-name="Layer 1"><image width="400" height="400" xlink:href="img/moyo_purple_small.png"/></g><g id="Areas"><polygon class="cls-1" points="46.5 76.5 87.5 124.5 100.5 128.5 119.5 124.5 138.5 109.5 149.5 91.5 149.5 72.5 132.5 49.5 121.5 37.5 108.5 23.5 46.5 76.5"/><polyline class="cls-1" points="160.5 11.5 159 35.5 157.5 47.5 159 56 160.5 64.5 166 70 171.5 75.5 180.5 79 189.5 82.5 201 82.5 212.5 82.5 222 77.5 231.5 72.5 236.5 62.5 241.5 52.5 241.5 38 241.5 23.5 241.5 17.5 241.5 11.5 201 11.5 160.5 11.5"/><polygon class="cls-1" points="290.5 28.5 249.5 78.5 252.5 97.5 269.5 119.5 290.5 128.5 312.5 125.5 350.5 82.5 290.5 28.5"/><polygon class="cls-1" points="379.5 138.5 324.5 138.5 299.5 147.5 291.5 162.5 287.5 188.5 291.5 220.5 304.5 238.5 325.5 248.5 356.5 248.5 379.5 248.5 379.5 138.5"/><polygon class="cls-1" points="253.5 383.5 229.5 355.5 204.5 316.5 204.5 290.5 211.5 270.5 228.5 255.5 253.5 244.5 278.5 244.5 295.5 252.5 308.5 269.5 337.5 334.5 253.5 383.5"/><polygon class="cls-1" points="130.5 383.5 175.5 330.5 182.5 303.5 164.5 276.5 143.5 259.5 122.5 252.5 102.5 252.5 87.5 263.5 68.5 287.5 49.5 317.5 130.5 383.5"/><polygon class="cls-1" points="18.5 132.5 74.5 138.5 93.5 144.5 105.5 159.5 110.5 174.5 106.5 209.5 98.5 232.5 78.5 244.5 64.5 248.5 31.5 244.5 12.5 240.5 18.5 132.5"/><polygon class="cls-1" points="157.5 230.5 130.5 185.5 133.5 145.5 157.5 128.5 231.5 128.5 257.5 144.5 265.5 179.5 241.5 230.5 157.5 230.5"/></g></svg>